<svg xmlns="http://www.w3.org/2000/svg" viewBox="0 0 1600 900" preserveAspectRatio="none" role="img" aria-label="Arches background">
  <defs>
    <linearGradient id="b" x1="0" y1="0" x2="1" y2="1">
      <stop offset="0" stop-color="#0B1220"/>
      <stop offset="1" stop-color="#052e2a"/>
    </linearGradient>
    <linearGradient id="line" x1="0" y1="0" x2="1" y2="0">
      <stop offset="0" stop-color="#D8B25C" stop-opacity="0"/>
      <stop offset="0.35" stop-color="#D8B25C" stop-opacity="0.28"/>
      <stop offset="0.7" stop-color="#059669" stop-opacity="0.24"/>
      <stop offset="1" stop-color="#059669" stop-opacity="0"/>
    </linearGradient>
    <radialGradient id="g1" cx="50%" cy="0%" r="60%">
      <stop offset="0" stop-color="#D8B25C" stop-opacity="0.25"/>
      <stop offset="1" stop-color="#D8B25C" stop-opacity="0"/>
    </radialGradient>
  </defs>

  <rect width="1600" height="900" fill="url(#b)"/>
  <rect width="1600" height="900" fill="url(#g1)"/>

  <!-- repeating arches -->
  <g transform="translate(0 140)" opacity="0.9">
    <g fill="none" stroke="url(#line)" stroke-width="3">
      <path d="M0 640h1600"/>
      <path d="M70 640V320c0-120 98-218 218-218s218 98 218 218v320" />
      <path d="M506 640V320c0-120 98-218 218-218s218 98 218 218v320" />
      <path d="M942 640V320c0-120 98-218 218-218s218 98 218 218v320" />
      <path d="M1378 640V320c0-120 98-218 218-218s218 98 218 218v320" />
    </g>
    <g opacity="0.12" fill="#F3E6C7">
      <circle cx="288" cy="260" r="6"/>
      <circle cx="724" cy="260" r="6"/>
      <circle cx="1160" cy="260" r="6"/>
      <circle cx="1496" cy="260" r="6"/>
    </g>
  </g>

  <rect width="1600" height="900" fill="#000" opacity="0.08"/>
</svg>

