<svg xmlns="http://www.w3.org/2000/svg" viewBox="0 0 1600 900" role="img" aria-label="Quran illustration">
  <defs>
    <linearGradient id="bg" x1="0" y1="0" x2="1" y2="1">
      <stop offset="0" stop-color="#0B1220"/>
      <stop offset="1" stop-color="#052e2a"/>
    </linearGradient>
    <radialGradient id="gold" cx="35%" cy="35%" r="55%">
      <stop offset="0" stop-color="#D8B25C" stop-opacity="0.35"/>
      <stop offset="1" stop-color="#D8B25C" stop-opacity="0"/>
    </radialGradient>
    <linearGradient id="cover" x1="0" y1="0" x2="1" y2="1">
      <stop offset="0" stop-color="#059669"/>
      <stop offset="1" stop-color="#047857"/>
    </linearGradient>
  </defs>
  <rect width="1600" height="900" fill="url(#bg)"/>
  <rect width="1600" height="900" fill="url(#gold)"/>

  <!-- desk -->
  <path d="M0 720C260 680 420 760 800 730s540-90 800-30v200H0Z" fill="#041c1a" opacity="0.95"/>

  <!-- Quran (stylized) -->
  <g transform="translate(520 190)">
    <path d="M120 120c0-44 36-80 80-80h420c44 0 80 36 80 80v520c0 44-36 80-80 80H200c-44 0-80-36-80-80V120Z" fill="url(#cover)" />
    <path d="M200 40h420c44 0 80 36 80 80v520c0 44-36 80-80 80H200c-44 0-80-36-80-80V120c0-44 36-80 80-80Z" fill="none" stroke="#D8B25C" stroke-width="10" opacity="0.85"/>
    <path d="M410 80c70 0 130 40 130 100 0 40-26 74-64 92 38 18 64 52 64 92 0 60-60 100-130 100s-130-40-130-100c0-40 26-74 64-92-38-18-64-52-64-92 0-60 60-100 130-100Z" fill="#0B1220" opacity="0.25"/>
    <path d="M410 120c52 0 96 30 96 66 0 28-24 52-58 61 34 9 58 33 58 61 0 36-44 66-96 66s-96-30-96-66c0-28 24-52 58-61-34-9-58-33-58-61 0-36 44-66 96-66Z" fill="#F3E6C7" opacity="0.92"/>

    <!-- page lines -->
    <g stroke="#F3E6C7" opacity="0.55" stroke-width="6">
      <path d="M220 470h380"/>
      <path d="M220 520h380"/>
      <path d="M220 570h280"/>
    </g>
  </g>

  <rect width="1600" height="900" fill="#000" opacity="0.10"/>
</svg>

