<svg xmlns="http://www.w3.org/2000/svg" viewBox="0 0 96 96" role="img" aria-label="Amina Quran Academy logo mark">
  <defs>
    <linearGradient id="g" x1="0" y1="0" x2="1" y2="1">
      <stop offset="0" stop-color="#059669"/>
      <stop offset="1" stop-color="#D8B25C"/>
    </linearGradient>
    <radialGradient id="r" cx="30%" cy="25%" r="70%">
      <stop offset="0" stop-color="#F3E6C7" stop-opacity="0.55"/>
      <stop offset="1" stop-color="#F3E6C7" stop-opacity="0"/>
    </radialGradient>
  </defs>

  <!-- base -->
  <rect x="10" y="10" width="76" height="76" rx="22" fill="#0B1220"/>
  <rect x="10" y="10" width="76" height="76" rx="22" fill="url(#r)"/>

  <!-- crescent -->
  <path
    d="M63 24c-10-4-22 2-27 12-6 12-1 26 11 32 6 3 13 3 19 1-10 9-25 11-38 4-17-9-24-31-15-48 8-16 28-23 45-15 2 1 4 2 5 3z"
    fill="url(#g)"
    opacity="0.95"
  />

  <!-- open book -->
  <g transform="translate(22 44)">
    <path d="M0 8c10-6 20-6 30 0v24c-10-6-20-6-30 0V8z" fill="#059669" opacity="0.92"/>
    <path d="M30 8c10-6 20-6 30 0v24c-10-6-20-6-30 0V8z" fill="#047857" opacity="0.92"/>
    <path d="M30 6v30" stroke="#D8B25C" stroke-width="3" stroke-linecap="round" opacity="0.85"/>
    <path d="M8 17h14M8 23h18M8 29h16" stroke="#F3E6C7" stroke-width="2.6" stroke-linecap="round" opacity="0.85"/>
    <path d="M36 17h14M36 23h18M36 29h16" stroke="#F3E6C7" stroke-width="2.6" stroke-linecap="round" opacity="0.75"/>
  </g>
</svg>

